<svg width="46" height="46" viewBox="0 0 46 46" fill="none" xmlns="http://www.w3.org/2000/svg">
<g clip-path="url(#clip0_103_2)">
<path d="M44.75 23.8193C44.75 22.2031 44.6062 20.6219 44.3312 19.0938H23.4375V27.7594H35.5187C35.0312 30.4844 33.5687 32.8344 31.4437 34.2969V40.2313H39.1562C42.8125 36.8156 44.75 30.8219 44.75 23.8193Z" fill="#4285F4"/>
<path d="M23.4375 46.0001C29.6125 46.0001 34.8062 43.9532 39.1562 40.2313L31.4437 34.2969C29.2562 35.8032 26.5687 36.6844 23.4375 36.6844C17.5187 36.6844 12.5187 32.4844 10.7437 27.0532H2.85625V33.1282C7.15625 40.7532 14.6562 46.0001 23.4375 46.0001Z" fill="#34A853"/>
<path d="M10.7437 27.0531C10.2812 25.6468 10 24.1281 10 22.5625C10 21.0093 10.2812 19.4812 10.7312 18.0625V12H2.85625C1.04375 15.5812 0 18.9156 0 22.5625C0 26.2093 1.04375 29.5437 2.85625 33.1281L10.7437 27.0531Z" fill="#FBBC05"/>
<path d="M23.4375 8.4375C26.8937 8.4375 29.8562 9.60938 32.2562 11.8312L39.3062 4.78125C34.7937 0.95625 29.6125 0 23.4375 0C14.6562 0 7.15625 5.24688 2.85625 12L10.7312 18.0625C12.5187 12.6312 17.5187 8.4375 23.4375 8.4375Z" fill="#EA4335"/>
</g>
<defs>
<clipPath id="clip0_103_2">
<rect width="46" height="46" fill="white"/>
</clipPath>
</defs>
</svg>
